<?xml version="1.0" encoding="utf-8"?>
<svg viewBox="0 0 800 800" xmlns="http://www.w3.org/2000/svg">
  <ellipse style="stroke: rgb(0, 0, 0); paint-order: fill; stroke-width: 0px; fill: rgb(110, 7, 243);" cx="400" cy="400" rx="400" ry="400"/>
  <path d="M 575.789 262.499 L 575.789 300 C 575.789 334.531 497.43 362.499 400.789 362.499 C 304.148 362.499 225.789 334.531 225.789 300 L 225.789 262.499 C 225.789 227.969 304.148 200 400.789 200 C 497.43 200 575.789 227.969 575.789 262.499 Z M 532.977 367.733 C 549.227 361.954 564.148 354.53 575.789 345.39 L 575.789 425 C 575.789 459.531 497.43 487.499 400.789 487.499 C 304.148 487.499 225.789 459.531 225.789 425 L 225.789 345.39 C 237.43 354.609 252.351 361.954 268.601 367.733 C 303.679 380.234 350.398 387.499 400.789 387.499 C 451.18 387.499 497.899 380.234 532.977 367.733 Z M 225.789 470.39 C 237.43 479.609 252.351 486.954 268.601 492.733 C 303.679 505.234 350.398 512.499 400.789 512.499 C 451.18 512.499 497.899 505.234 532.977 492.733 C 549.227 486.954 564.148 479.53 575.789 470.39 L 575.789 537.499 C 575.789 572.031 497.43 600 400.789 600 C 304.148 600 225.789 572.031 225.789 537.499 L 225.789 470.39 Z" style="fill: rgb(55, 46, 65);"/>
</svg>