<?xml version="1.0" encoding="utf-8"?>
<svg viewBox="-800 -100 800 800" xmlns="http://www.w3.org/2000/svg">
  <g transform="matrix(1, 0, 0, 1, -56.064732, -9.835918)">
    <ellipse style="stroke: rgb(0, 0, 0); stroke-width: 0px; fill: rgb(110, 7, 243);" cx="-343.935" cy="309.836" rx="400" ry="400"/>
    <path d="M -543.935 159.836 C -543.935 132.258 -521.513 109.836 -493.935 109.836 L -268.935 109.836 C -241.357 109.836 -218.935 132.258 -218.935 159.836 L -218.935 209.837 C -218.935 237.414 -241.357 259.836 -268.935 259.836 L -493.935 259.836 C -521.513 259.836 -543.935 237.414 -543.935 209.837 L -543.935 159.836 Z M -418.935 384.836 C -418.935 371.008 -407.763 359.836 -393.935 359.836 L -393.935 347.336 C -393.935 312.805 -365.967 284.836 -331.435 284.836 L -218.935 284.836 C -205.108 284.836 -193.936 273.664 -193.936 259.836 L -193.936 234.836 L -193.936 164.133 C -164.794 174.445 -143.935 202.18 -143.935 234.836 L -143.935 259.836 C -143.935 301.242 -177.529 334.836 -218.935 334.836 L -331.435 334.836 C -338.311 334.836 -343.935 340.461 -343.935 347.336 L -343.935 359.836 C -330.107 359.836 -318.936 371.008 -318.936 384.836 L -318.936 484.836 C -318.936 498.664 -330.107 509.836 -343.935 509.836 L -393.935 509.836 C -407.763 509.836 -418.935 498.664 -418.935 484.836 L -418.935 384.836 Z" style="fill: rgb(55, 46, 65);"/>
  </g>
</svg>