<?xml version="1.0" encoding="utf-8"?>
<svg viewBox="0 100 800 800" xmlns="http://www.w3.org/2000/svg">
  <g>
    <ellipse style="stroke: rgb(0, 0, 0); stroke-width: 0px; fill: rgb(110, 7, 243);" cx="400" cy="500" rx="400" ry="400"/>
    <path d="M 274.659 414.505 C 243.028 414.505 217.407 388.884 217.407 357.253 C 217.407 325.621 243.028 300 274.659 300 C 306.291 300 331.912 325.621 331.912 357.253 C 331.912 388.884 306.291 414.505 274.659 414.505 Z M 538.023 414.505 C 506.39 414.505 480.77 388.884 480.77 357.253 C 480.77 325.621 506.39 300 538.023 300 C 569.655 300 595.277 325.621 595.277 357.253 C 595.277 388.884 569.655 414.505 538.023 414.505 Z M 171.604 513.768 C 171.604 471.616 205.813 437.408 247.966 437.408 L 278.525 437.408 C 289.903 437.408 300.71 439.912 310.441 444.349 C 309.513 449.501 309.084 454.871 309.084 460.308 C 309.084 487.646 321.105 512.193 340.07 529.012 C 339.927 529.012 339.785 529.012 339.57 529.012 L 186.848 529.012 C 178.475 529.012 171.604 522.14 171.604 513.768 Z M 461.661 529.012 C 461.517 529.012 461.375 529.012 461.161 529.012 C 480.197 512.193 492.148 487.646 492.148 460.308 C 492.148 454.871 491.649 449.573 490.789 444.349 C 500.523 439.84 511.328 437.408 522.706 437.408 L 553.266 437.408 C 595.419 437.408 629.627 471.616 629.627 513.768 C 629.627 522.212 622.756 529.012 614.383 529.012 L 461.661 529.012 Z M 469.319 460.308 C 469.319 498.239 438.545 529.012 400.616 529.012 C 362.686 529.012 331.912 498.239 331.912 460.308 C 331.912 422.379 362.686 391.605 400.616 391.605 C 438.545 391.605 469.319 422.379 469.319 460.308 Z M 263.209 647.311 C 263.209 594.638 305.934 551.911 358.606 551.911 L 442.625 551.911 C 495.297 551.911 538.023 594.638 538.023 647.311 C 538.023 657.831 529.506 666.419 518.915 666.419 L 282.316 666.419 C 271.796 666.419 263.209 657.902 263.209 647.311 Z" style="fill: rgb(55, 46, 65);"/>
  </g>
</svg>